<?xml version="1.0" encoding="UTF-8" standalone="no"?>
<!-- Created with Inkscape (http://www.inkscape.org/) -->

<svg
   version="1.1"
   id="svg1"
   width="300"
   height="300"
   viewBox="0 0 300 300"
   sodipodi:docname="bw.svg"
   xml:space="preserve"
   inkscape:version="1.3.2 (091e20e, 2023-11-25, custom)"
   xmlns:inkscape="http://www.inkscape.org/namespaces/inkscape"
   xmlns:sodipodi="http://sodipodi.sourceforge.net/DTD/sodipodi-0.dtd"
   xmlns="http://www.w3.org/2000/svg"
   xmlns:svg="http://www.w3.org/2000/svg"><defs
     id="defs1" /><sodipodi:namedview
     id="namedview1"
     pagecolor="#ffffff"
     bordercolor="#000000"
     borderopacity="0.25"
     inkscape:showpageshadow="2"
     inkscape:pageopacity="0.0"
     inkscape:pagecheckerboard="0"
     inkscape:deskcolor="#d1d1d1"
     inkscape:zoom="2.71"
     inkscape:cx="128.96679"
     inkscape:cy="150"
     inkscape:window-width="1920"
     inkscape:window-height="1009"
     inkscape:window-x="2872"
     inkscape:window-y="-8"
     inkscape:window-maximized="1"
     inkscape:current-layer="g1" /><g
     inkscape:groupmode="layer"
     inkscape:label="Image"
     id="g1"><path
       style="fill:#000000"
       d="m 19.661273,295.63001 c -2.264732,-12.48954 -3.065307,-23.4484 -17.0158624,-23.1167 14.1626394,2.78933 16.3006884,-8.72848 13.9577234,-19.87389 2.123384,-8.0522 13.040445,-9.62622 3.670366,-0.71923 -1.309851,13.20663 -2.429838,24.307 0.407246,37.30901 1.175786,4.86941 7.024389,16.79729 -1.019473,6.40081 z m 15.95773,4.46943 c -4.172762,-8.54154 20.515855,1.52995 2.057812,0.31575 z m 14.87304,-3.34511 c -0.150842,-8.16608 -26.007101,-6.57688 -7.876498,-8.89418 8.739644,-4.56962 15.890669,21.77369 7.876498,8.89418 z m 18.37696,-3.26734 c -0.292211,-19.13524 8.230348,9.87225 0.311901,5.98873 -0.369657,-1.97724 -0.281849,-3.99099 -0.311901,-5.98873 z m 9.5,1.25102 c 1.604015,-18.19142 5.30799,13.98276 0.07031,2.90625 z m 17.8,4.8 c 6.264307,-2.37471 -0.131218,4.50781 0,0 z M 113.369,291.12288 c 0.31485,-5.57775 0.84759,-11.18465 -4.85898,-14.15882 -3.93241,-11.04606 12.96448,7.51732 7.85898,14.30319 1.8177,7.09666 -3.73212,14.01837 -2.98597,2.53124 z m 9,2.17415 c -1.4662,-12.32405 7.26004,-6.83467 2.52637,1.90001 1.04853,10.72986 -3.86778,4.0293 -2.52637,-1.90001 z m 18.91344,4.19098 c 2.37461,-9.55081 18.6731,-5.02522 3.83656,-1.00384 -0.76165,2.39988 -5.11993,7.2373 -3.83656,1.00384 z m 16.57635,-2.66202 c 2.08283,-21.14398 -24.70725,3.2873 -29.40313,-14.80618 -8.57329,-2.14096 -17.26871,-11.06329 -21.08666,-17.85253 -2.90792,-7.26325 5.53941,-21.68976 10.65493,-14.9724 -16.65259,5.89712 -1.54314,23.65178 7.35224,29.24031 8.39915,4.51894 15.54988,11.44592 26.76213,5.64703 4.47509,-5.83657 5.97344,-12.52525 15.44882,-10.39338 15.15637,-3.36818 11.7609,-22.29502 23.23706,-29.02065 16.99488,3.88675 12.28775,-20.26158 28.10367,-18.54597 -0.70026,4.44666 -13.41558,7.01778 -12.5679,16.49839 -9.28352,5.26995 -23.53717,5.229 -22.73736,20.17625 -3.63967,13.38223 -19.54342,10.71224 -25.79631,18.67474 -1.1262,15.04834 24.80979,14.33176 28.5181,1.26641 1.76989,14.26049 -15.23153,13.37931 -25.01226,12.03272 0.18705,5.3447 -4.68195,14.11866 -3.47333,2.05526 z m 8.51021,4.87758 c 6.34932,-1.99494 15.65856,2.2538 3.41569,0.9559 l -1.79619,-0.2171 z m 29.08259,-1.68279 c 4.88393,-12.04347 8.17517,2.04216 -0.52883,2.05092 l 0.52896,-2.05092 z m 16.91741,1.80612 c 2.03915,-9.56222 20.63019,-3.66526 6.27167,-1.51412 -1.90875,-0.69983 -5.41875,4.28445 -6.27167,1.51412 z m 45,-0.0889 c -14.06672,-0.53327 -7.92676,-21.05224 1.82381,-22.76742 -7.58844,-5.80645 -25.41096,-3.38596 -36.32381,-2.21693 -7.41042,-2.24519 -14.98628,1.57836 -5.95566,7.93182 3.31928,14.67309 -10.34471,-5.16855 -5.29434,-9.71977 15.39818,-3.17632 31.8139,-3.06643 47.28281,-0.75583 10.16787,10.12628 -16.68759,13.83987 -3.44531,24.20553 4.30981,-1.02289 8.98334,6.65434 1.9125,3.3226 z m 10,-1.08333 c 3.07872,-5.90271 3.2686,6.86743 0,0 z m 9.17668,0.53051 c 3.36031,-5.87987 2.80145,5.57659 0,0 z m 8.82332,-0.8364 c 0.40768,-13.76581 -27.53635,-2.38361 -24.42786,-9.78698 12.00685,1.52323 28.94199,1.06053 24.21913,-15.8238 9.52586,7.51478 -7.18654,18.75374 4.20873,26.39436 -0.1413,2.52631 -4.86294,1.92235 -4,-0.78358 z m 10,1.4244 c 6.3616,-8.36241 6.55435,4.13703 0,0 z M 0.37226277,297.98801 c 5.28683873,-4.63198 22.01786923,2.0216 7.00000003,1.48431 -2.0107828,-0.57784 -5.5297173,0.51119 -7.00000003,-1.48431 z m 87.45907023,0.51241 c -2.475156,-16.99744 7.206487,-2.5013 0,0 z m 17.003167,0.008 c 1.90342,-6.89416 -2.71989,-21.04581 -6.225543,-7.19349 -9.941272,0.0416 10.827853,-18.72637 8.672723,-2.96811 -0.35591,1.22396 1.24495,13.80985 -2.44718,10.1616 z m 26.09727,-0.57293 c 0.37446,-14.88614 8.25536,6.36188 0,0 z m 54.05943,0.99997 c 0.89812,-14.87756 28.47261,-23.79084 23.48864,-4.19772 -2.81423,-16.88155 -18.17898,-4.71498 -21.66917,5 l -1.08047,-0.23567 z m 46.3778,-3.18518 c 1.16764,-5.40977 -13.67279,-11.58524 -5.89449,-14.12185 3.74808,3.14699 14.54317,15.96784 6.23854,17.19473 z m -170.935077,1.56568 c -6.163305,-7.50614 2.647599,-12.29068 2.93508,-2.20271 0.372058,1.83067 -1.179103,4.62812 -2.93508,2.20271 z m 180.034757,-5.2549 c -1.86428,-5.63591 4.51751,-18.69432 3.41721,-5.43507 1.47523,6.1404 -3.82573,18.71032 -3.41721,5.43507 z M 26.369003,288.82907 c -0.965317,-13.78537 22.514547,-7.37896 18.001198,-24.93439 5.053656,0.239 1.807567,16.93678 -3.043488,17.47388 -11.004535,-2.51936 -11.472949,7.38846 -14.216606,13.75058 -1.203077,-1.80723 -0.490155,-4.26684 -0.741104,-6.29007 z m 265.187277,1.3042 c 5.43335,-5.45672 14.15856,2.60782 1.58155,1.57352 -0.94887,0.5016 -2.23591,-0.58405 -1.58155,-1.57352 z M 0.36900277,289.73801 c 9.24109233,-4.02749 15.12939123,3.69758 0,0 z M 50.707163,283.17685 c -3.971813,-12.16359 11.097881,-18.54894 13.010774,-4.14579 0.479146,14.78822 -5.947981,-15.84356 -9.813354,-2.76804 -0.07346,3.15049 3.378528,12.58041 -3.19742,6.91383 z m 117.739497,0.66097 c -12.97512,-4.46391 12.18633,-1.66571 13.04903,-10.39896 11.22615,-6.54979 6.05928,-25.54703 22.34347,-24.21474 11.24474,-2.83363 9.51646,-17.29738 21.2463,-20.50764 -0.20386,-13.72711 21.20746,-9.30058 18.81272,-25.5159 0.39089,-12.24626 22.08103,-6.47703 14.89206,-22.38927 -3.4965,-10.77806 21.97396,-14.98096 4.9733,-5.47561 -9.94185,16.6478 13.83057,17.59524 19.15635,4.40231 1.07936,8.75745 -12.85699,14.98138 -22.00164,12.97616 -6.97893,4.86072 -16.47675,6.97852 -15.77374,18.05637 -6.15428,11.69121 12.07044,28.70241 24.14125,27.27427 9.03833,-4.47268 17.92196,21.85317 7.14902,6.94325 -10.98064,-14.44711 -23.04638,10.02179 -6.61576,14.44931 7.04851,3.35255 12.20778,19.16749 6.85233,22.43158 4.37993,-17.2474 -19.40261,-20.99852 -17.77298,-35.51997 1.17263,-11.71453 -14.07948,-16.28663 -18.80058,-26.02347 -13.37309,-2.30721 -11.87091,16.68759 -23.59907,19.02714 -0.4006,16.61311 -28.55739,8.96139 -24.94921,27.76857 -7.35766,4.89801 -13.24331,19.91594 -23.10285,16.7166 z M 5.1190028,282.93322 c -14.7279099,-2.79129 16.0781482,-3.03502 1.9192969,0.0592 z m 75.7500002,0.12357 c -8.741688,2.04951 -21.471508,-18.72885 -13.791244,-18.46001 0.03287,15.62236 27.384804,23.71461 30.291244,6.32942 7.426517,-13.56706 2.991197,12.29465 -6.245124,11.93948 -3.231755,1.4839 -6.885459,0.31363 -10.254876,0.19111 z m 151.201237,-0.95088 c -1.6972,-8.19253 9.07626,1.59681 0,0 z m 35.29876,-4.29925 c 0.24422,-7.86193 -6.68833,-14.59186 -14.4798,-12.79826 -14.79263,-1.21502 -29.64626,0.61086 -44.32036,0.77946 -7.29938,-16.36904 21.20343,-12.61363 30.92858,-13.15797 6.86876,-1.29458 18.98223,4.41888 5.71579,3.23421 -10.94221,1.39232 -31.6825,-4.33927 -36.58539,6.36301 12.29827,1.87088 26.77017,-2.16298 39.96542,-0.29046 11.76271,-4.44779 27.87703,12.92339 19.06692,19.6849 l -0.22104,-1.50964 z m 28.25897,3.68135 c -2.095,-16.04496 -20.12978,-19.83343 -28.25897,-32.83156 7.66045,-0.94837 17.19402,16.39725 27.09954,19.47722 -0.94997,4.36461 11.49899,18.44693 1.15943,13.35434 z m -158.7974,-5.16832 c -7.1909,-10.02053 5.90032,-16.79206 11.45209,-7.20717 5.88356,11.99156 -2.59964,4.26756 -5.88945,-1.70127 -12.65163,-2.96555 6.27301,16.96881 -5.56264,8.90844 z m 54.53843,1.04076 c 4.72203,-10.47206 7.43397,6.03874 0,0 z m 11,-2.98758 c -5.50128,-4.41198 -4.0316,-22.21163 -0.66013,-7.88355 1.95554,1.55984 5.57484,12.50131 0.66013,7.88355 z M 24.554003,272.98801 c 11.030809,0.14142 10.111615,-11.01919 12.162192,-17.79793 12.783307,4.93395 20.59371,-17.71778 5.330568,-16.27131 -8.947438,3.40996 -5.758918,-6.40967 -7.428453,-11.79164 -6.729804,-3.40669 -19.738898,-7.56653 -12.699304,-19.63912 7.203591,-1.42892 -3.843868,16.2969 9.423202,14.15326 15.71964,-8.90041 -2.421905,20.62556 15.83502,14.67684 10.298859,0.79446 6.921495,26.55331 -6.687505,21.78714 -6.47307,2.94404 1.081152,16.09935 -8.62072,15.30268 -1.816128,-0.22483 -7.576398,3.45747 -7.315,-0.41992 z m 56.50107,0.73343 c -9.652148,-3.67379 -6.73432,-19.69926 -20.46356,-17.54013 -5.981619,-9.63905 -2.336757,-25.15924 11.796047,-20.07385 4.617361,-7.05903 -4.039885,-18.23153 9.988173,-14.37224 6.437912,-3.73022 1.906105,-22.16093 14.11309,-12.38241 7.434077,6.9812 -3.328592,10.4835 -1.99822,0.54771 -10.76384,-4.0493 -0.07128,18.18092 -14.947063,15.7894 -4.873713,6.64625 0.139889,18.04001 -11.782833,13.23627 -13.364687,-1.13236 -7.004745,21.16027 5.008249,16.25956 3.035558,6.94257 5.927231,18.57952 17.462717,16.09614 2.849841,4.00925 -7.382231,3.725 -9.1766,2.43955 z M 125.569,269.53801 c -4.06365,-11.22082 9.82635,3.23652 0,0 z m 27.46667,-3.46667 c -5.19755,-14.87486 15.23336,-12.65449 16.12705,-26.23324 4.94898,-2.74272 11.10622,-23.4308 10.73153,-9.48169 -9.2953,9.59643 -10.86746,24.54434 -24.25016,28.14154 -1.08467,2.20377 2.45916,10.49297 -2.60842,7.57339 z M 0.36900277,264.23801 c 3.47495253,-5.09164 17.96964423,1.67095 5.50000003,1.5 -1.3858125,-0.48624 -5.01618093,0.74853 -5.50000003,-1.5 z M 161.73054,264.23776 c 1.73468,-11.03347 12.72619,5.73406 0,0 z m 137.71741,-0.0831 c 0.9727,-3.54579 0.62153,4.34077 0,0 z M 25.809973,262.35884 c -3.02323,-9.01603 6.581601,-11.00802 3.486649,-0.52802 0.580849,3.33455 -2.893837,3.85578 -3.486649,0.52802 z m 27.66915,1.01185 c -0.07456,-9.08652 8.726598,3.78147 0,0 z m 29.15742,0.11732 c -5.135515,-10.2017 -0.05716,-9.01469 3.602622,-1.81434 15.282905,1.62741 1.561839,4.99156 -3.602622,1.81434 z m 34.932457,-2.95 c -5.27726,-15.77539 13.5734,1.90383 0,0 z m 12.05,-0.4389 c -3.12876,-8.03965 29.69303,-1.97389 8.60957,-0.82535 -2.87709,0.0575 -5.73909,1.47483 -8.60957,0.82535 z m -32.066417,-3.10255 c 6.056447,-10.69532 2.731727,9.98976 0,0 z m 74.816417,0.17935 c -1.4481,-7.03167 11.58676,-22.65665 5.32971,-8.21888 -1.44748,1.62757 -1.25887,13.99889 -5.32971,8.21888 z m 115.58985,-0.33862 c -3.71473,-5.88555 21.73643,-1.08784 7.24234,1.55978 -2.45702,0.77271 -5.37045,0.28059 -7.24234,-1.55978 z M 0.36900277,255.845 c 5.46569253,-6.34622 16.02578123,2.51358 3.05859373,0.82255 L 1.8377528,256.47569 Z M 88.832963,252.98801 c -0.450766,-7.35018 6.138834,-15.08963 4.19514,-2.75709 1.195798,2.51517 -5.822274,9.27072 -4.19514,2.75709 z M 145.869,250.752 c -5.11421,-0.36153 -30.5628,0.55751 -16.38616,-3.57237 2.6336,-0.17334 27.62869,0.97496 16.38616,3.57237 z M 0.36900277,247.07028 C 16.816226,246.84887 21.408282,229.04008 11.411008,217.51373 c 0.335978,-4.29437 -0.886648,-23.88943 4.679783,-13.01744 -7.5912526,14.53121 13.885859,28.9498 -2.711572,41.13519 -3.063187,2.38277 -9.9597573,3.77529 -13.01021623,1.4388 z m 30.45888023,0.6012 c 1.234488,-7.03488 23.440478,0.92311 7.10015,1.06653 -2.383108,-0.10017 -4.88846,0.03 -7.10015,-1.06653 z m 35.54112,-0.80411 c 3.972422,-5.59197 28.317862,-0.39088 10.885046,1.85496 -2.978063,-0.81924 -9.552703,1.77212 -10.885046,-1.85496 z m 223.494307,1.10533 c -11.47564,-10.30651 -6.17842,-27.16583 -7.2513,-40.73377 -3.39435,-10.70923 6.9055,-30.85482 17.75699,-21.08778 -4.85769,1.00337 -17.37157,2.10373 -13.97495,13.67483 1.59641,14.50738 -5.38304,32.37082 3.92906,44.63023 6.35194,0.37018 15.46368,4.48387 3.3722,4.20275 l -1.72642,-0.16273 z M 99.549453,245.51094 c 2.647117,-4.03037 19.573127,-11.42252 6.220767,-12.03317 -4.98846,5.34647 -18.744326,3.25262 -5.76086,-0.78146 8.76999,-9.73772 20.16338,8.51735 6.40161,10.88543 -1.34297,0.68268 -7.02791,7.61264 -6.861517,1.9292 z M 221.369,245.43804 c 4.57904,-14.99738 8.91312,9.93585 0,0 z m 23.54726,1.37647 c 8.44195,-13.10835 13.30541,4.67328 0,0 z m -91.66673,-2.44784 c -10.99993,-7.67736 -34.5532,4.5666 -35.7662,-14.20867 -8.14979,-5.69584 -15.19666,-9.40054 -13.21668,-20.96166 -7.862844,-13.51131 -26.516792,-8.45794 -37.003697,-2.4583 -7.269238,-6.21319 -23.486207,3.92967 -26.039148,-2.63212 11.096812,-0.30964 20.639221,-4.24475 16.344274,-17.30858 2.604106,-13.50061 -14.582211,-18.33397 -9.729751,-32.81666 -8.788903,-5.31836 -4.881286,-27.23663 3.530675,-25.93464 -10.825191,12.51073 -0.505681,27.23323 1.82639,40.6242 6.540497,2.88217 8.368421,7.63004 7.17361,14.4269 -3.290935,11.30467 3.970856,29.84497 15.394713,14.97253 6.410521,0.53425 16.300143,-2.10321 22.287298,1.14592 5.598976,10.96721 22.875046,8.50531 16.807636,-5.49757 -2.12175,-3.32679 -21.034532,-12.66238 -8.73895,-9.53631 12.39118,0.37286 11.26828,22.07451 24.97966,13.82778 4.80451,-7.59505 12.42942,-3.95546 3.1009,1.28564 -6.72287,6.02298 -17.37525,-0.11374 -22.33172,9.87866 -14.345043,11.76536 12.23645,14.63083 11.10982,26.97795 10.6682,5.21463 31.28039,-1.07578 35.95667,10.28451 -2.08824,1.02686 -4.1634,-1.05776 -5.6855,-2.06958 z m 79.14216,-3.04761 c -6.06563,-8.51904 12.14117,-22.4409 2.69902,-7.46617 -2.12953,4.46416 7.12363,16.6574 -1.98022,9.68984 z M 25.857753,239.7198 c -2.831804,-7.23219 5.623217,-14.93405 3.104718,-2.77234 -0.130176,1.56514 -1.04294,5.32155 -3.104718,2.77234 z M 0.36900277,238.94481 c 7.35936493,0.63334 8.83992633,-18.34069 10.43965523,-4.29449 -1.6012453,3.60991 -6.7633445,6.67793 -10.43965523,4.29449 z M 292.34895,238.21384 c -1.8781,-7.03753 15.88304,4.40649 1.88552,1.07645 z M 83.070243,238.10591 c -4.642654,-10.54682 9.946525,-8.88376 2.25,0.40835 l -1.299802,8.5e-4 z m 74.731037,-1.24609 c -5.73191,-1.9267 -2.1195,-9.18888 -3.2391,-13.74914 0.10649,-8.65148 -4.8086,-32.45558 9.77223,-22.74041 8.03303,9.31073 -3.05302,19.65051 5.42696,28.59727 -3.29419,2.85208 -6.62166,13.36427 -11.96009,7.89228 z m 5.33986,-2.37181 c -0.50888,-9.76658 5.87844,-32.29641 -5.79146,-33.71701 2.50443,7.46811 -5.62762,37.69932 5.79146,33.71701 z m 20.93441,3.62322 c -0.36512,-6.8323 7.32326,-19.06164 5.31701,-4.71311 -0.4818,2.0101 -2.47315,7.04504 -5.31701,4.71311 z m 56.76638,-0.41702 c 1.08535,-10.00284 9.29408,5.0803 0,0 z m -44.99607,-4.2062 c 7.82341,-18.05126 -20.0505,-11.15534 -24.15211,-16.15385 6.08756,-1.65733 15.34519,-1.90446 21.33896,0.62027 7.31247,2.44296 10.21125,21.68559 2.81315,15.53358 z m -55.79422,-0.4007 c -5.73816,1.30501 -21.56807,-6.75023 -7.98788,-5.33914 8.3571,4.0386 17.11797,5.87918 13.43055,-6.8635 1.19532,-6.00461 0.0543,-27.05057 -6.23293,-12.14877 -2.83032,8.2006 -28.98887,-1.62582 -8.97998,-0.16707 5.89961,-0.29045 17.24895,-16.12214 17.8653,-1.30778 -1.932,7.22843 6.6933,31.21928 -8.09506,25.82626 z m 123.98981,-1.07028 c -1.19886,-8.04791 7.47648,-11.30074 3.51023,-0.71993 -0.43093,1.46299 -2.50872,1.71459 -3.51023,0.71993 z m 10.89935,-0.46564 c -1.89697,-8.5273 -3.63905,-30.46044 1.57329,-31.78831 -1.91369,8.63967 3.22608,28.18502 -1.57329,31.78831 z M 0.44795277,230.15468 c 0.97269933,-3.54579 0.62152983,4.34077 0,0 z M 53.369003,229.43001 c 4.496263,-14.03647 7.468516,9.68525 0,0 z m 242.314807,0.75 c -7.68108,-7.78065 -3.74884,-30.56191 -0.71791,-36.07679 3.81223,11.8335 -6.27781,27.89782 5.4031,36.11335 0.13149,3.27259 -3.60812,-0.2456 -4.68519,-0.0366 z M 43.404443,229.06133 c 4.954844,-5.94448 0.884771,-12.62074 -1.080753,-16.07941 10.777523,-3.98179 6.753344,21.08428 1.080753,16.07941 z m 20.88699,-0.99204 c -5.052223,-6.56555 6.721235,-23.1818 3.49242,-9.26061 -3.292024,1.2968 3.283503,17.48696 -3.49242,9.26061 z m 28.07757,-1.63128 c 5.183768,-11.26309 11.672697,5.73302 0,0 z M 254.77737,225.3598 c 1.18396,-11.70573 9.344,4.79994 0,0 z M 1.5690028,222.53801 c -4.6490527,-14.08979 12.7433732,4.65554 0,0 z m 132.2999972,-0.8 c -4.34125,-0.68572 -24.92664,-2.12855 -17.13669,-7.33689 2.46732,4.31816 35.27901,4.32681 17.13669,7.33689 z m 66.62231,-5.23241 c -6.21887,-3.39999 -5.63178,-9.45403 -4.51518,-15.58308 5.18735,-14.53753 2.11477,4.81031 3.09273,9.93747 3.31992,14.24087 21.1153,-2.1711 22.11344,6.62027 -8.34425,-1.47538 -15.20447,9.23914 -20.69099,-0.97466 z m -145.029667,1.40551 c -4.684799,-19.68792 10.500572,1.69397 0,0 z M 249.369,215.99824 c 3.18381,-7.79475 27.01011,1.55019 11.27969,0.71092 -2.67976,-2.213 -10.68397,2.98935 -11.27969,-0.71092 z M 75.714093,215.1949 c 0.115067,-18.18056 10.929398,1.87514 0,0 z m -44.9177,-2.11988 C 37.588001,195.72569 4.7915745,200.50566 8.2216728,182.31399 c -7.95992636,-4.82719 -9.8022021,-9.27254 0.417554,-4.96203 6.2792182,3.14215 0.017653,17.90963 12.4603112,17.34567 7.744427,9.28873 21.160118,0.58494 27.047126,-4.27482 -1.6538,-5.96364 2.074494,-19.04039 2.707988,-5.71606 -0.424981,5.40021 2.540807,13.72561 -5.8475,12.37922 -15.815219,-3.00381 -5.930721,15.66495 -13.784025,18.58839 l -0.626818,-0.27161 z m 196.057737,-0.72423 c -1.80113,-8.13693 -1.88048,-16.21321 -11.30422,-19.99833 -6.58171,-12.73823 -24.63929,-13.62776 -30.1661,-27.35771 -11.86852,1.47892 -16.05446,-17.98754 -6.367,-18.73216 -8.20925,12.09577 5.15903,14.55824 12.69125,19.62821 3.78916,14.46847 24.32552,13.00858 29.14546,27.40783 12.36433,-0.49079 2.68331,25.45881 13.22191,13.98469 8.64556,-10.70623 -16.82703,-20.69551 -9.7761,-23.81094 12.44612,3.9932 22.3717,30.87473 2.5548,28.87841 z M 1.3690028,208.73801 c 4.9451828,-10.67508 4.4381998,10.25983 0,0 z m 175.2138072,1.13214 c -8.9274,-9.86051 -6.13139,-27.83447 -22.70345,-28.12354 -8.00257,-6.36041 10.07642,-21.42197 2.10517,-8.21914 -2.76018,12.07775 19.25845,5.64134 15.01432,19.64589 -2.46141,6.20752 16.89135,16.31299 5.58396,16.69679 z m 10.07456,-9.63121 c -2.67843,-8.21127 5.29269,-14.86915 3.76613,-3.36226 0.199,6.28854 -3.34674,22.02021 -3.81175,6.29398 z m 18.09579,7.89355 c 5.83528,-10.99776 -0.2693,-18.99569 -11.23259,-21.9204 -10.92363,-5.05643 -14.15914,-17.95175 -27.62593,-20.49328 -7.57262,-11.63151 12.3007,-32.4992 -5.78439,-34.84058 19.12438,-6.09673 -10.75121,-23.82279 7.66357,-31.92965 3.55548,-12.993405 0.89348,-27.464608 4.21992,-40.746098 -8.8705,-3.833918 -6.1723,16.119986 -17.90365,13.952277 -7.94344,8.759561 -12.48068,26.240879 -28.72109,18.191993 -5.10873,-4.324833 -14.17921,-8.652572 -14.12691,-16.336257 -2.40781,-7.104105 2.47591,-17.159089 2.29351,-3.808161 0.11827,13.531936 20.93026,26.137886 30.14423,13.118806 2.57646,-14.889018 19.2246,-16.24634 25.03642,-29.060376 12.01908,3.855113 0.88218,26.021266 4.15367,36.754808 3.66154,9.844078 -7.53814,10.040688 -8.50092,18.415008 7.39736,7.02148 3.79037,16.27523 6.12829,24.95843 9.93927,0.33203 24.83862,10.25322 15.12171,21.16855 -4.12427,-2.79648 3.99004,-18.01162 -8.95147,-16.57957 -13.82306,5.23881 -12.7938,31.15113 4.84512,30.90746 4.18405,14.74844 27.79482,13.68799 28.5289,29.13831 -3.72922,2.24239 1.78768,18.0126 -5.28839,9.10873 z m 9.99989,-0.83607 c -1.90747,-11.41525 10.30829,1.34849 0.62022,1.01347 z m 38.02287,-0.94039 c 1.1919,-11.54188 11.65262,4.7457 0,0 z m 12.10839,0.21514 c -4.88749,-14.0134 8.90004,-5.59376 0.71009,0.81919 z m -160.08042,-9.08316 c -8.60078,-9.10281 13.05727,2.74407 2.21403,2.29531 z M 2.0356728,199.07134 c -3.0964369,-12.65461 10.7404872,3.03858 0,0 z M 178.32308,196.6522 c -0.51601,-4.93547 -8.67937,-27.81391 0.0194,-15.56256 -0.42328,2.13082 6.25347,22.88445 -0.0194,15.56256 z m -111.263597,0.44295 c -1.873973,-12.22534 3.188925,-27.41256 -10.288315,-34.28846 3.153086,-10.13281 -13.218954,-28.062 3.311261,-29.55462 8.012151,2.04884 2.943551,15.65664 0.322158,3.53172 -12.547595,-1.70193 2.86113,16.24514 -0.598066,24.31603 6.795921,12.95998 24.299107,0.46729 18.716504,-11.12712 0.997187,-16.0967 24.347815,-7.81094 23.173585,-23.85653 8.87528,19.71336 -26.344475,9.93173 -19.934327,29.78563 2.472391,6.79133 -1.135411,9.84993 -7.460106,11.48595 -13.198358,3.78267 0.08827,25.07729 -7.242694,29.7074 z m 79.976187,-2.02381 c -0.42145,-8.69306 24.18423,-4.53682 7.83244,-2.38272 -2.62739,0.0992 -5.12596,4.55472 -7.83244,2.38272 z M 123.369,192.26369 c 7.50279,-6.69905 7.96613,-16.38612 19.7222,-18.16044 0.516,-10.8299 23.46514,-20.96481 3.93643,-27.9747 -6.14454,-10.1809 -17.18614,-16.05239 -24.2704,-24.27814 -16.73572,-1.24728 8.46175,-7.54452 7.94664,3.3876 9.27727,9.07129 21.29794,17.5429 27.65746,27.57313 2.57405,11.34127 -14.05456,12.06975 -13.15328,23.96377 -12.79728,-1.38449 -12.1504,18.86019 -21.83905,15.48878 z m -96.149997,-6.02568 c -4.988824,-8.97691 10.634556,-14.96088 3.402201,-3.65125 2.717597,7.03471 -2.84438,17.19843 -3.402201,3.65125 z m 56.15,-0.5 c 0.173919,-18.44189 7.036691,9.22222 0.303574,5.58334 -0.323056,-1.84503 -0.284981,-3.72 -0.303574,-5.58334 z m 9.54707,4.75 c -3.234911,-7.03114 1.062865,-22.68532 2.45293,-7.22723 -0.526514,2.93601 5.482297,11.80242 -2.45293,7.22723 z m 146.845197,-1.32322 c 1.69688,-14.16556 7.04595,9.86927 0,0 z m -164.725597,0.90655 c -4.420144,-11.93729 2.355745,-19.47026 12.635386,-23.31937 0.218673,-9.46152 -2.727735,-23.09007 12.042925,-21.01377 17.912656,-2.26793 6.447396,-40.76986 -6.224568,-19.56962 -0.2079,12.92031 -5.145423,-5.56108 -12.440379,-3.11951 -3.834677,-8.76784 -18.685832,-0.55665 -14.590657,-12.73849 2.066135,-10.975871 21.195712,1.67342 3.823099,-0.90744 -8.753084,6.68188 12.878501,5.34625 14.887129,12.61374 8.000603,0.33225 15.337232,-5.42164 23.824962,-6.65551 3.41114,-7.8438 10.8285,-5.3755 17.65275,-4.86583 9.90617,-0.0137 4.0424,-16.638564 16.54295,-15.035979 10.33339,-1.370819 10.26847,-25.795235 21.00046,-17.942783 -11.42486,3.433577 -10.19584,22.209203 -25.59735,22.971232 -12.5318,13.76507 4.46468,24.91776 14.34318,30.72422 -2.82776,7.81193 17.37684,8.7723 5.51319,10.927 -9.90199,-9.80709 -20.69164,-18.57925 -30.1148,-28.7192 -12.47621,-4.56712 -22.91378,4.88718 -17.09828,17.23186 -5.36664,14.52539 8.73232,16.45131 18.71718,17.52507 2.62373,9.83715 11.40765,12.59231 18.30036,5.48949 -0.81417,5.63151 -12.46272,8.66486 -11.35218,17.4209 -4.26419,-2.83596 1.93254,-14.25278 -7.53203,-16.87502 -3.59202,-8.19115 -15.85244,-5.16835 -22.11577,-8.88682 -8.182272,4.025 -21.376953,3.37296 -16.126283,16.85261 3.020955,12.97609 -19.951109,9.02464 -13.823699,23.9861 -0.433454,0.85508 0.501754,6.70419 -2.267575,3.90712 z M 0.36900277,186.02372 c 3.08263443,-7.1343 2.49775353,8.59988 0,0 z m 36.34099023,1.16051 c 2.444332,-4.72231 3.27069,-32.45866 6.462883,-15.66568 -2.610283,4.1032 2.525403,22.37568 -6.462883,15.66568 z m 212.634257,-1.01132 c -1.79727,-13.92282 8.37729,8.41766 0,0 z m -231.308577,0.89843 c 2.357322,-8.36978 -8.5637503,-23.3524 -2.750434,-27.14769 1.087444,5.75088 11.308148,27.01426 2.750434,27.14769 z M 139.369,186.32591 c 4.93169,-5.94538 13.97833,0.40459 2.80887,1.41224 l -2.06159,-0.37568 -0.74728,-1.03642 z m -19.6149,-3.02673 c 2.281,-12.90337 8.32843,4.79304 0,0 z m 147.6149,-1.53549 c 8.97566,-9.05481 23.31882,-13.63277 19.35643,-29.4163 7.73531,5.91961 0.89939,22.90098 -10.51548,24.61878 -2.33975,1.45042 -6.60585,10.91151 -8.84095,4.79752 z m -38,-2.14591 c -5.88507,-4.54228 -29.51746,-0.30641 -18.91974,-14.083 14.71968,0.0306 29.65586,0.68472 44.41167,-1.17909 7.36761,2.16552 22.64953,-15.24196 12.62632,-1.29586 -12.84367,4.65394 -27.97138,7.37675 -41.19415,5.63809 -6.10725,-2.7877 -25.36345,1.71648 -10.66273,4.8713 11.52036,0.44069 19.86207,8.21481 30.44883,-0.11847 15.90053,0.004 -11.45938,6.58244 -14.0353,8.32521 l -1.26135,-0.97501 -1.41351,-1.18317 z m -118.30614,0.48075 c -0.26206,-6.1 7.00673,2.49258 0,0 z m 178.55141,-3.61052 c 7.65814,-5.36315 16.3051,2.91609 2.62585,1.18124 -0.47847,-0.3263 -2.83337,0.17175 -2.62585,-1.18124 z M 99.535073,173.97123 c -5.222727,-4.51908 -1.043231,-28.78399 1.323817,-12.50609 -0.37974,4.92886 -1.132113,17.22828 5.98354,10.08593 -0.64223,-5.84129 1.55921,-30.06801 3.7759,-12.6193 1.06724,5.92889 -2.23984,24.11577 -11.083257,15.03946 z m 63.542777,2.1423 c -1.88228,-8.38366 10.32639,2.44447 0,0 z m -46.49778,-11.01985 c -4.14465,-9.1137 11.50367,-14.36162 3.20489,-3.87596 0.76023,8.32667 -3.51879,20.29988 -3.20489,3.87596 z m 8.78893,2.64433 c 1.14244,-16.75923 7.4361,7.78935 0.3125,4.75 l -0.24219,-1.84375 z M 6.1790428,170.49176 c -4.4737881,-9.34428 -4.0315007,-22.06322 9.4033892,-19.98207 12.852989,-7.20839 2.350367,6.36722 -5.281068,3.68958 -10.51989582,1.71953 4.045255,17.98158 -4.1223212,16.29249 z m 17.6984902,-1.8838 c -4.211175,-6.79134 4.061862,-18.47979 1.781582,-4.755 2.208366,14.85997 13.589269,-19.82831 15.240042,-5.4343 -8.82627,-0.6658 -5.938643,20.22015 -17.021624,10.1893 z M 198.7111,168.18713 c 3.57682,-5.76619 7.54232,-25.34797 7.32994,-8.03359 -1.80395,1.55706 -4.17207,13.13156 -7.32994,8.03359 z m 96.6579,-5.44912 c 1.60401,-18.19142 5.30799,13.98276 0.0703,2.90625 z m -19.48555,3.02337 c 1.29867,-4.23695 0.68358,-23.8718 4.05147,-9.83507 0.15481,3.08564 1.8116,11.74407 -4.05147,9.83507 z M 65.749013,159.2859 c 2.131492,-11.85231 13.278251,5.22438 0,0 z M 225.869,159.3801 c -8.56383,-0.77994 -1.56318,-13.376 -8.05373,-17.39204 -7.17595,-0.29547 -21.62668,-19.00027 -7.33155,-7.87914 13.28656,2.28933 10.732,15.85519 17.43039,23.80161 10.53635,-1.33281 21.47186,-3.09208 32.27132,-3.0309 6.58516,-7.40069 -16.71966,-6.4249 -2.95973,-9.85274 15.16768,5.9983 -0.59447,17.37017 -10.54794,13.0199 -6.94415,1.00631 -13.81485,4.29326 -20.80876,1.33331 z m -32.14526,-2.66574 c -1.4162,-7.83415 5.22757,-16.66867 3.79381,-3.48838 1.82006,2.79932 -5.01069,11.02179 -3.79381,3.48838 z m 18.33863,-3.6583 c -2.25303,-15.49105 8.14663,3.07157 1.3106,5.33374 -1.04355,-1.56393 -0.99845,-3.56383 -1.3106,-5.33374 z M 28.691903,151.13709 c 2.354997,-7.76756 13.203727,-0.11717 1.19538,1.60092 z m 108.208627,-2.66938 c 0.1845,-10.23306 -30.78665,-7.89374 -11.67282,-11.26038 6.8175,-2.43258 20.25351,12.57404 12.92211,13.57003 z m 93.13514,2.60363 c -0.93723,-5.48097 -7.53422,-25.40237 1.66731,-22.33333 -6.4634,6.18898 4.87489,20.08433 -1.66731,22.33333 z m 8.75404,-1.67937 c 0.29597,-9.14207 14.40721,1.699 1.08146,1.05383 z m 54.57929,-1.15396 c -5.40031,-3.74769 -22.00366,-2.91692 -18.75,-12.50004 3.73189,10.16282 24.88922,4.18003 21.8653,15.00004 l -1.23137,-0.73438 z m -227.993667,0.75 c 13.125002,-1.97518 -2.950413,-28.40552 8.527163,-22.91755 -6.675168,6.10029 10.487507,25.5481 -8.527163,22.91755 z m 202.066387,-3.63234 c -5.49752,-4.82028 -11.62818,-7.93988 -1.93317,-12.682 7.00117,-9.94217 5.28716,1.00024 -0.13955,5.03347 2.70086,3.06655 11.48109,16.47081 2.07272,7.64853 z M 3.0137428,144.89794 c -3.3989857,-5.37999 6.615083,-17.211 10.7842702,-17.2748 2.449703,6.94811 -17.6426737,13.85045 -4.8789827,16.51611 13.7991307,-9.50042 1.0418199,7.94802 -5.9052875,0.75869 z m 199.1234472,-2.2109 c -9.88637,0.38272 -22.79629,-19.86785 -14.47541,-20.76833 -4.09405,15.16755 17.55727,12.70721 17.88518,23.20931 l -1.34071,-0.50747 z M 21.413553,140.08467 c -2.07816,-10.11428 -0.0052,-21.4609 -14.7170102,-21.59666 -12.1904442,-12.00961 13.8069942,1.25019 16.1994062,5.32465 -3.879841,9.69744 3.381009,23.19204 12.992258,11.73752 0.952011,-10.75965 4.388425,-19.06291 16.785663,-18.32672 4.353617,-3.34723 8.577143,-14.38302 6.992749,-1.73218 -10.527872,5.80429 -21.837136,8.13664 -22.327136,23.05046 -2.284913,3.91891 -13.09435,6.17975 -15.92593,1.54293 z M 241.87779,139.8199 c -21.15008,-5.73185 26.09596,-2.86341 4.54234,0.46033 l -2.13251,-0.22113 z m 43.24121,-3.16199 c -4.36696,-5.67039 14.03692,0.36466 15.25,-6.30248 -1.21341,7.7873 -9.19486,8.64299 -15.25,6.30248 z M 79.035673,134.07134 c -1.927562,-11.39592 12.70654,2.77718 0,0 z m -50.24288,-5.9626 C 34.549242,110.80739 1.517428,112.9154 4.8127528,101.89333 c 10.4052052,7.75641 32.4616522,10.73955 26.6789902,28.77054 -2.643574,6.57355 -3.651402,0.78004 -2.69895,-2.55513 z M 0.40227277,126.95283 c 1.20726543,-12.37652 5.74801593,5.75063 0.0279285,4.43665 -0.00931,-1.47888 -0.018619,-2.95777 -0.0279285,-4.43665 z M 117.369,129.67159 c 3.79751,-6.545 9.55407,6.57179 0.13714,1.01488 z m 96.10576,-0.83479 c -8.68304,-16.03063 21.40328,-9.92982 30.69396,-11.00462 9.33505,-2.63964 27.50085,4.36999 13.4057,13.19343 -15.16185,-0.17111 13.84531,-7.53653 -1.15733,-10.06281 -13.73656,1.09954 -31.11008,-2.68088 -42.88558,2.66212 0.0539,4.49319 15.12181,7.04318 2.84,7.26086 l -1.50193,-0.92249 z m -37.49971,-4.76852 c 1.53247,-15.28575 20.4049,-19.58933 28.47551,-31.330273 3.24768,6.857185 -13.33492,13.046543 -17.25208,20.339063 -9.7258,-2.65296 -9.34331,30.07387 -11.22343,10.99121 z m 62.83508,5.23705 c -4.11383,-8.64382 16.20623,3.48779 2.21757,1.01183 z m 38.71895,0.19276 c -2.65429,-6.17085 -2.78906,-29.582781 1.80697,-12.26431 -0.49006,2.31413 2.82393,15.34147 -1.80697,12.26431 z m -82.60796,-1.01008 c -10.73566,-19.31907 24.3973,-22.73443 15.44788,-39.750003 -7.85632,-10.014458 -18.20282,11.533153 -20.19219,5.976386 4.59342,-11.185554 14.20253,-10.669193 23.84124,-10.513125 0.17335,-7.389609 12.23975,-16.255733 16.1705,-12.226725 -13.99284,3.44947 -14.84678,19.83128 -17.40854,30.817177 -11.89341,4.46616 -18.31993,16.49832 -15.82582,26.94629 l -1.277,-0.36719 -0.75608,-0.88281 z m 92.00459,-1.97251 c -0.44827,-12.39824 -3.2509,-23.08966 -16.30671,-27.869204 -9.29322,-10.778908 16.62098,5.860614 17.39756,10.224454 -4.63291,7.27121 6.26954,16.95719 2.24248,19.86726 l -1.71203,-0.65286 z m -228.306707,0.56023 c -4.083373,-6.13816 11.922666,-5.20222 2.46485,0.58333 l -2.46482,-0.58333 z m 97.106737,-2.85045 c 3.03265,-13.45749 10.02978,5.32116 0,0 z m 141.63806,-2.16369 c -6.67518,-5.50168 -5.08333,-27.697715 3.0052,-27.906916 -9.42128,6.471606 1.8249,27.938866 -3.0052,27.906916 z m -94.9948,-1.24685 c 5.01576,-15.24979 23.45995,-11.40431 35.88516,-12.08356 10.51813,0.49142 32.46499,-2.15507 31.38754,12.53943 -6.66724,-13.4495 -23.8345,-8.45942 -36.13283,-9.60981 -11.95652,-1.48723 -25.0636,1.38932 -30.73109,10.51225 z m -58.50478,-2.49061 c -10.28667,-4.55802 5.29233,-21.015767 0.92766,-8.10875 -3.88773,12.74402 6.41045,2.60553 9.73453,0.48676 1.47377,3.95075 -6.89427,13.96939 -10.66219,7.62199 z m -57.840227,-3.41486 c -6.764058,-15.3076 11.588971,-7.19662 17.878357,-6.19894 2.82716,-3.37354 -0.81069,-22.696927 4.38899,-10.822234 4.18869,13.087664 -10.897646,17.501084 -18.596647,8.849914 -7.008153,0.2355 5.864121,14.05014 -3.6707,8.17126 z m -51.9172,-0.76681 c -1.074759,-8.06808 30.452026,-4.3959 9.26221,-0.97599 -3.045546,0.0218 -6.242386,2.07907 -9.26221,0.97599 z m 137.332957,-3.36073 c -3.40445,-8.70341 10.69937,-0.9246 0,0 z m 92.42925,-5.82989 c -10.81634,-6.266744 3.01593,-24.119734 -13.7358,-27.920684 -9.10565,-6.687126 -1.16659,-9.191054 3.51716,-1.412201 8.66808,12.122153 27.79257,8.465334 34.34338,22.692209 -8.25877,-5.348368 -30.6396,-20.932916 -25.22097,1.866916 4.36165,3.00418 13.46301,11.53652 1.09623,4.77376 z M 20.070593,104.14028 c -14.5048807,-9.560932 8.648603,1.24667 14.79841,-2.47113 11.482351,-3.20754 39.097732,4.40749 33.814352,-15.834422 0.877475,-7.633135 5.689386,10.168168 12.698954,3.427787 12.754518,-4.668621 -6.635318,-29.199258 9.986694,-29.064144 -12.294018,8.322554 9.049207,33.641253 -13.02678,31.539636 -8.924758,1.353971 -10.980103,15.302873 -23.53024,11.000003 -11.608412,-0.16131 -23.167629,4.69239 -34.74139,1.40227 z m 103.985907,-0.0481 c -4.0309,-15.429129 10.00067,-3.05014 0,0 z m 27.69251,-0.80628 c 1.32138,-11.815505 10.59784,5.35368 0,0 z m 27.22374,-0.13813 c 0.20361,-9.30514 13.19844,2.83741 0.81615,1.12311 z M 114.369,98.872866 c 2.59923,-6.645399 -17.186402,-19.441598 -3.5448,-13.102472 8.67857,0.733534 6.79755,28.685346 3.5448,13.102472 z m 106.51273,3.885734 c 4.71341,-5.546049 28.03102,-3.407902 30.14436,0.12173 -10.01236,-0.34289 -20.44221,-0.0269 -30.14436,-0.12173 z M 78.554763,100.62454 c -3.587166,-4.606377 24.170517,-7.783519 19.06424,-0.44138 -6.469022,-3.520106 -12.664338,1.08699 -19.06424,0.44138 z M 21.632233,94.631335 C 17.47321,87.329945 10.382723,80.162469 5.391374,75.576921 c 10.913701,0.103465 15.369257,14.212382 21.275779,20.529603 -1.662358,2.011355 -3.537672,-1.539648 -5.03492,-1.475189 z M 0.36900277,94.298679 C 10.684183,94.834546 10.643644,87.135267 0.62126184,85.485707 5.7582643,76.471871 23.24641,102.89157 0.36900277,94.298679 Z M 33.119003,95.16782 C 31.75982,87.102668 43.867152,80.841881 31.383066,74.917797 21.876615,65.403063 8.3146655,58.847109 2.3690028,46.034761 c 6.0209356,-14.142548 2.4667739,8.63845 11.2740512,10.001463 10.750212,8.976477 21.191932,16.727159 29.725949,27.787429 -5.164526,2.068959 -14.148187,11.36554 -1.855555,8.749085 5.952959,-6.171523 18.780779,0.536198 5.521375,1.76907 -4.608458,0.312391 -9.307197,1.793682 -13.91582,0.826012 z M 159.369,93.376431 c 0.43261,-15.81837 8.66625,0.565003 0.39131,1.873074 z m 82.2323,0.526303 c -4.98492,-8.006951 9.88983,-19.412551 2.33881,-5.519433 -2.68246,2.812944 4.86484,8.855749 -2.33881,5.519433 z m 8.10078,-3.156478 c 7.15372,-11.518431 2.94885,9.154835 -1.76209,3.246 0.58736,-1.082 1.17473,-2.164 1.76209,-3.246 z M 59.776373,83.582121 C 58.931925,71.286429 60.917986,54.195181 48.689262,47.93968 c 12.073469,2.529465 28.341355,15.253541 41.001351,3.376079 14.095397,-2.251776 11.504617,-14.281127 5.040871,-21.328857 13.803866,3.194219 3.877481,26.608067 22.003476,24.200391 9.64721,5.302451 2.91257,33.661797 21.25649,22.550714 0.28768,13.607043 -24.94704,-0.208109 -18.1266,-12.538049 -1.0851,-10.284241 -14.82991,-7.49704 -20.863867,-14.461951 -7.89487,1.189495 -6.049176,10.180235 -14.126429,6.456662 -6.851562,11.403884 -31.168491,-11.220632 -24.429061,9.424941 -1.572709,8.435041 16.545762,9.871684 2.42351,11.618397 1.365368,5.999502 -2.369454,25.448103 -3.303526,9.606545 z m 118.779517,8.405886 c 14.39384,-6.912614 10.54527,-27.063259 8.77819,-40.19984 5.81876,-16.14859 -17.10321,-28.193682 -25.29777,-12.211619 -6.04774,5.357641 -16.88918,23.704471 -22.52993,13.711829 14.28588,-0.256064 17.37838,-19.531885 29.98046,-23.480278 19.70058,-4.901568 21.01153,16.300536 22.62824,29.678968 -0.96554,10.18133 1.60952,36.792729 -13.55919,32.50094 z m 42.01949,0 c 9.45716,0.09569 15.55194,-6.129515 15.20367,-16.714998 6.64978,-13.217297 1.91247,22.194394 -7.369,18.378235 -1.98626,-0.552091 -7.74181,1.565338 -7.83467,-1.663237 z M 96.619003,90.075726 c -6.488215,-18.818883 9.032757,-4.55373 0,0 z M 286.31478,87.791254 c -16.29353,-6.59743 -12.74225,-26.351993 -9.44578,-39.823766 2.27272,12.507586 -5.44109,31.8795 11.38383,37.397284 8.61803,1.771688 4.03706,8.713723 -1.93805,2.426482 z m 11.71476,-2.875857 c -3.35415,-7.787433 -10.71358,-29.962391 1.23754,-21.556406 -9.60211,-0.590615 -6.69173,7.659907 0.54615,7.879016 -4.02552,2.44098 3.55564,18.307533 -1.78369,13.67739 z M 24.337103,83.154091 c -0.280897,-14.010434 11.093806,9.085277 0,0 z m 200.202567,-0.06379 c 5.66175,-7.673572 3.0298,5.523356 0,0 z M 49.865403,82.732177 c 4.870772,-6.550034 -6.235284,-24.166713 1.174666,-24.952369 -2.030098,6.250496 9.510684,25.966264 -1.174666,24.952369 z m 27.17027,0.339163 C 77.83063,74.023691 73.541281,67.967983 66.443299,64.957612 76.210044,57.639938 85.005438,83.329887 77.035673,83.07134 Z M 178.71956,79.488007 c 2.91509,-13.458334 -0.006,-28.436505 -2.66008,-39.571092 -9.50326,4.251835 -15.42974,18.904829 -24.96105,22.650657 5.44536,-7.195091 17.86691,-29.9653 29.32449,-21.5749 1.01632,13.304185 4.22677,26.86228 1.36688,40.495335 -1.64177,4.720768 -4.5618,1.16419 -3.07024,-2 z M 205.8505,77.70806 c 0.894,-8.625646 10.57881,3.634544 0,0 z m 58.53058,-0.455506 c 0.98589,-5.36153 1.56156,-18.378045 3.48792,-5.084185 -0.0931,1.898142 0.17667,9.241301 -3.48792,5.084185 z m 21.03878,-1.177029 C 280.82334,62.931064 282.36512,45.033823 289.53862,32.62393 286.59943,17.925697 279.7621,46.889894 270.31204,41.39329 254.74839,33.088214 258.20931,60.456458 245.62775,54.94143 253.95457,49.673667 260.949,38.593872 258.43773,27.443582 260.11279,18.920475 277.994,16.62051 276.369,4.2876673 c 4.86086,-10.32082 2.30287,13.7577187 -4.62414,14.4346957 -13.30006,3.670678 -13.40685,24.894913 3.07934,19.394463 2.23968,-8.231746 18.52854,-18.780194 17.79407,-6.240234 -7.48013,11.479208 -5.57679,26.040131 -6.9049,39.038971 2.74785,3.592695 7.45102,11.867224 -0.29351,5.159962 z M 103.03567,77.07134 c 2.05802,-7.269435 -6.278589,-15.770283 -3.916667,-20.301908 5.897777,1.126587 8.522737,20.192722 3.916667,20.301908 z m 93.93092,-0.175429 c 3.84662,-9.29628 -2.74,-23.951602 1.31528,-29.711755 3.29888,7.55372 4.98488,26.250351 -1.31528,29.711755 z M 16.902783,74.386361 c -5.452362,-11.848036 10.016929,3.217591 0,0 z m 24.45526,-1.898354 c -5.99908,-6.331821 1.697579,-34.600388 1.31163,-13.960241 -3.535824,3.531551 7.761832,24.423374 -1.31163,13.960241 z m 52.17104,1.010081 c -4.458945,-14.084173 9.696167,-0.35038 0,0 z m 35.202667,-2.257162 c 1.57077,-10.876919 10.50119,5.618245 0,0 z M 254.119,67.894532 c -11.30303,-9.986624 8.48865,-3.052843 7.16929,-0.337102 -3.21482,4.479058 -3.35861,5.173104 -7.16929,0.337102 z m -114.08202,0.681802 c 2.29805,-15.654707 8.61967,5.873209 0,0 z M 6.6190028,69.019546 c -4.3463958,-9.337862 12.6041352,-1.271183 0,0 z M 210.44849,68.856366 c -12.79098,-5.050697 22.00175,-1.422152 8.22448,-8.695841 -7.76479,1.547562 -15.9669,-3.380193 -3.74513,-3.992212 16.05292,2.19401 12.54998,14.069964 -4.47935,12.688053 z M 30.306783,62.62174 c 3.469191,-11.602719 -3.525126,-29.385749 5.764221,-37.680533 9.046746,2.638857 18.626116,-4.008208 26.875169,-1.84047 7.338937,5.987588 27.146203,11.844627 21.704831,-4.431978 -3.035027,-2.551365 -19.96211,-12.4544107 -6.246455,-8.048622 16.511305,4.14091 11.123127,28.823626 -6.305691,20.529846 -10.465985,-9.537856 -23.191617,-2.21612 -35.320666,-2.937903 -4.73975,1.906627 -0.342098,12.874725 -2.291434,17.714281 -0.905695,2.931265 0.800132,23.078774 -4.179975,16.695379 z m 201.537587,1.076406 c 0.18767,-7.351558 20.86638,0.415773 6.36287,0.837132 -2.12211,-0.01503 -4.43432,0.355232 -6.36287,-0.837132 z M 0.40081277,59.296877 c -0.0105556,-11.410488 4.51441873,7.501921 0.0561342,2.645414 z M 128.81515,60.650875 c 2.69294,-8.533752 11.47109,5.349144 0,0 z m 129.7659,-2.662868 c 3.85169,-5.156973 16.76568,2.270522 4.65561,1.75 -0.96943,-0.424392 -5.2615,0.790202 -4.65561,-1.75 z M 296.619,55.076871 c -12.17422,-4.035703 9.39915,-34.460472 1.02106,-14.067167 -6.0782,4.610262 7.91102,17.189647 -1.02106,14.067167 z M 20.887153,54.767375 c 5.324011,-5.828349 -2.309548,-22.656278 4.018303,-22.617051 0.461968,5.382372 4.384747,24.333592 -4.018303,22.617051 z M 222.89959,52.81407 c -6.98849,-5.463871 -8.40862,-16.365889 -20.34521,-11.37493 -10.15345,1.99785 -14.84499,-21.991091 -5.37429,-6.217839 15.09039,13.221463 21.1212,-13.110173 4.54125,-17.13409 -4.83739,-2.907754 -13.97374,-15.0321893 -5.65018,-16.3790111 -1.89149,12.9067041 15.0071,16.7846111 19.32903,24.9142581 -2.75233,10.446351 3.19713,22.785224 13.76881,25.315549 4.3089,6.334107 -4.05922,2.37292 -6.26941,0.876063 z m 13.06297,-0.826063 c 1.80343,-11.0341 -2.79369,-20.978531 -15.40039,-17.10121 12.06553,-11.581059 22.29782,7.644035 18.11325,19.522547 -1.29534,1.305924 -2.74151,-1.648685 -2.71286,-2.421337 z M 124.119,52.15926 c 2.21357,-1.443476 17.55228,-16.228581 19.69481,-5.730879 -8.9634,-4.194187 -10.79043,9.068831 -19.69481,5.730879 z M 69.222973,48.864742 c -8.529404,0.305888 -29.226833,-15.648884 -11.021,-17.126735 9.638953,9.579819 29.739651,0.372654 35.615499,10.56971 -12.051305,-3.600732 -26.63061,-0.04359 -38.187579,-8.56971 -7.486181,8.150986 16.919785,14.114982 24.386581,12.453125 15.27316,0.873477 -8.432042,6.204532 -10.793501,2.67361 z m 136.331257,0.123265 c 9.12852,-8.621539 6.30526,7.97796 0,0 z m 57.48144,1.083333 c -1.47327,-9.204858 13.53271,4.035917 0,0 z M 13.369003,44.238007 c 1.546208,-13.529041 5.878012,10.262609 0.06757,2.352897 z m 97.538357,2.151704 c -3.62373,-9.566094 17.36778,3.030638 2.11003,0.952234 z m 133.8889,0.01933 c -1.47988,-11.87965 7.62776,2.096056 0,3e-6 z M 226.619,45.07134 c -5.06554,-8.432568 9.28209,0.0247 0,0 z M 41.375163,41.25419 c -3.589016,-23.416057 9.688569,8.661344 0,0 z M 124.369,42.405372 c 4.51175,-7.362097 20.39013,-25.769386 22.83375,-14.122794 -12.95829,-5.83428 -12.36739,17.343764 -22.83375,14.122794 z m 20.21795,-4.905243 c -9.98242,-6.624375 18.17308,-1.015435 2.90245,0.706807 z m -38.16991,-5.192297 c -12.651298,-7.983275 13.66463,-27.9622219 11.26842,-18.94329 -15.64324,2.898045 -12.07554,27.735606 3.6091,18.339148 2.97615,-5.645191 13.37085,-13.206154 6.14509,-2.221912 -3.61556,7.233304 -16.61514,11.209001 -21.02261,2.826054 z M 0.36900277,33.713256 C 6.5131453,30.871166 15.413314,31.244711 19.166903,22.607274 c 14.42794,-4.415967 7.126296,2.654661 -1.222517,4.585258 -1.982655,7.956833 -13.1929609,9.068119 -17.57538323,6.520724 z M 246.119,35.009539 c -13.13757,-5.240627 17.09179,-1.942627 3.18404,0.326414 z M 200.90977,29.816845 C 188.52369,21.996514 184.9851,2.4742215 168.36391,2.4442574 c 2.78974,-6.4975884 20.57357,3.1346565 22.1316,12.4924836 1.89171,2.231871 25.73969,24.592121 10.41426,14.880104 z M 267.369,31.6253 C 276.06864,20.121855 288.0375,11.574427 295.74395,1.2858927 303.36491,9.3107826 283.19273,13.417098 280.18841,21.839086 276.02453,23.899197 272.99384,36.047735 267.369,31.6253 Z M 154.7755,29.586723 c 5.81749,-6.943547 11.85,-29.93469903 23.5935,-16.206404 -7.91368,-2.293589 -15.88602,2.676818 -16.87841,12.609059 -1.71791,1.150372 -4.65164,6.818338 -6.71509,3.597345 z m -42.02688,-3.043504 c 7.95616,-9.280487 17.23741,-19.1575366 28.18236,-25.4164808 3.11826,8.0043276 -15.69712,9.2411048 -17.49879,19.1453368 -2.66416,1.839432 -6.96255,10.259123 -10.68357,6.271144 z m 123.38844,0.629508 c -7.90938,-0.810955 -22.52193,-3.827925 -6.10194,-3.918489 5.39646,0.58559 22.1232,-2.052744 20.71155,2.054974 -4.81649,0.510085 -9.9085,1.622803 -14.60961,1.863515 z M 0.36900277,24.347413 c 8.04654483,-7.448749 14.65925723,5.187645 0,0 z M 183.369,24.738007 c -4.70131,0.267539 -21.70272,-3.011965 -9.01542,-4.562757 3.32055,-2.226895 18.8475,5.690727 9.01542,4.562757 z M 295.51404,23.22073 c -15.02358,-15.4116016 15.5192,8.317061 0,0 z M 70.376563,20.426003 C 62.685611,16.149611 63.553736,5.607239 53.573553,4.0125475 49.057406,-3.5553542 70.523161,7.1926937 67.995796,14.240513 c 3.636028,3.294364 18.623541,12.218291 4.651464,7.46859 z m 23.99244,0.385328 c 4.879065,-11.3068296 3.272811,9.605585 0,0 z M 146.869,19.111465 c -5.81319,-0.653017 -19.58951,-0.816938 -6.40142,-5.199707 5.56545,0.728204 22.38128,6.573502 8.08419,5.782105 z M 33.369003,17.344996 c 6.280929,-3.593547 17.617973,0.664835 24.576165,-4.080414 0.466754,7.273228 -20.443725,6.038833 -24.576165,4.080414 z m -22,-1 C 14.766557,13.026759 37.420302,10.097876 25.567463,4.2596106 21.095635,7.7000667 3.356469,11.328679 5.4601953,5.1961451 14.504684,9.0635371 31.493967,-6.6065871 31.70317,9.3676941 27.931975,14.281331 16.468791,19.187562 11.369003,16.344996 Z M 209.91631,14.018561 c -9.14023,-1.168213 -7.01267,-21.2248653 -2.90044,-7.1978282 6.36305,12.1605702 22.70235,5.7389492 33.8718,7.4652882 6.43644,-0.379332 13.56121,0.928459 19.58356,-0.465847 5.91395,-3.9263359 10.99403,-21.7682187 8.39882,-5.0842 -3.49812,5.976358 -9.38532,9.898425 -16.33987,8.417297 -12.71006,0.0397 -25.42012,0.0794 -38.13018,0.119105 -1.49456,-1.084605 -2.98913,-2.16921 -4.48369,-3.253815 z M 0.36900277,14.738007 c 4.38422663,-6.9074799 6.24855163,7.387329 0,0 z M 90.139243,11.079671 c -7.899354,-2.7193268 -16.66733,-15.3974221 -3.7024,-6.2031922 4.092171,-0.559086 12.505861,10.9373512 3.7024,6.2031922 z m 10.229757,0.22643 c 2.5958,-5.5171439 24.28951,-15.9316071 10.76829,-4.4489202 -2.36127,0.3690998 -9.32701,8.8437682 -10.76829,4.4489202 z m 56.73377,-0.217228 c -1.0978,-6.0189084 4.51377,-15.5521022 3.98123,-3.4849736 -0.75417,1.1925464 -1.96441,4.0269066 -3.98123,3.4849736 z M 42.119003,10.018855 C 29.044558,5.3263361 58.114701,7.1746249 45.208065,10.271654 Z M 146.98264,9.921885 c 1.8709,-20.191291 10.76507,-0.6795507 0,0 z m 67.66003,-2.8723446 c -7.80494,-11.7982806 5.08141,2.063635 12.42242,-2.3521787 C 237.9893,6.1780564 257.39417,4.1332256 261.369,3.0830212 251.85945,14.666079 230.80251,3.9408585 216.84888,8.2719404 Z M 122.369,3.2380074 c 4.36646,-8.4011124 3.10642,7.8125596 0,0 z M 69.359873,2.2269969 c -0.253816,-5.233369 5.796102,3.3677355 0,0 z m 26.00913,0.01101 c 4.991487,-5.5261569 6.055147,5.3154471 0,0 z M 285.369,2.3113309 c 4.72229,-5.760636 4.05435,4.4976707 0,0 z"
       id="path1" /></g></svg>
