<svg version="1.1" xmlns="http://www.w3.org/2000/svg" xmlns:xlink="http://www.w3.org/1999/xlink" width="500" height="500" viewBox="0 0 500 500"><path stroke="none" fill="black" fill-rule="evenodd" d="M11.680171161693686,497.75C11.385016467763133,496.5125 10.834347007333754,493.3572242457577 10.456461249628397,490.7382761016839C10.07857549192304,488.11932795761004 8.921282082604458,484.8983497759481 7.884698117809327,483.58054680910175C6.848114153014196,482.2627438422554 5.999999999999999,480.94166227525477 6.0,480.6448099935447C6.0,480.3479577118346 8.99249689378396,481.5054368643877 12.64999309729769,483.21698588810716C18.99791523704893,486.1875371440456 23.120747176285004,486.8839143993869 35.64851478156524,487.1016087986312C38.553818541959956,487.15209411865544 42.01043894736799,485.7371442602032 46.16171479480467,482.7980842208847C49.140610550496724,480.689057069086 55.79361232127858,483.67512286338405 58.07374951437681,488.1445609906368C60.309347547544945,492.52669515208 60.427824787492185,493.9669208307954 58.83948497969189,497.45294697887414L57.678969959383785,500.0L34.94789300956651,500.0L12.216816059749231,500.0L11.680171161693686,497.75zM11.75,117.89922202850958C8.440278510111522,115.41267631751548 8.415870925161787,114.81940690557437 11.37491328020279,108.78207757774601L13.687282130266638,104.064155155492L16.21014362855812,106.78207757774601C18.44025078726,109.18461067548829 18.661465804959384,110.07887941598844 18.116502563424802,114.48859416669268C17.406893708553653,120.23058260933354 15.916154360354092,121.02919332299061 11.75,117.89922202850958zM10.551033350257,90.05639121728689C9.583615374575052,88.98740638679469 7.604658419980045,87.97490638679469 6.1533512289347625,87.80639121728689C3.8094119932161563,87.53423014755596 3.435468588209764,86.94278220383823 2.8062147648275966,82.51238963165935C2.209709576212199,78.31257064175902 2.4097648450037665,77.19272775299743 4.072790866284122,75.42251767347946C6.347873282807743,73.00080341649894 8.0,67.92015446962479 8.0,63.3454955287875C7.999999999999999,61.09257760590072 7.1792621933067595,59.48718195046453 5.1579739588395945,57.78638003306288C1.2659308229885027,54.51144164714265 0.698771629619515,51.7329899344754 0.5066406783540627,35.0C0.3767512319770371,23.687721658034775 0.6814615276683949,19.787470615850257 1.8926774034828684,17.258915244645067C3.1475340641031364,14.639254610515462 3.2233553906667622,13.430082384219869 2.2881292973868215,10.952385556808586C1.296046660013845,8.32405854496476 1.3712510071000183,7.810337662713133 2.8155265368767095,7.349735102874519C8.187725212994053,5.636455045734833 9.853589273399724,4.6167523525950385 10.848841687886733,2.4324112413279764L11.95712241770037,1.4210854715202004e-14L34.76575690920381,7.105427357601002e-15C56.82424906532328,2.336870220756743e-16 57.57932465552008,0.06549057430403904 57.72439067494075,1.9912895213078272C57.806890275769184,3.0864987580271324 58.5257700478171,4.912554404161172 59.32190127949168,6.049190957161251C60.567640326195495,7.827732584029377 60.57755664490518,8.75329180434375 59.393040800887945,12.689138893967545C58.21323220962941,16.609344971135485 58.22092273115752,17.636467167588645 59.44689124734008,19.88123745811412C65.0444175916438,30.130408356280654 65.1498208649768,30.483502893527614 63.535749019252286,33.57866161951435C61.512527672181456,37.45840911872062 61.63671983167205,39.97871905297152 64.0,43.0C65.24668005899136,44.593789327118095 65.96358845305964,47.079339902391474 65.9777641544112,49.85698880418418C65.99690635536827,53.607795353197 65.75652474811707,54.11769147063279 64.25,53.52191244061873C57.81511952554858,50.97713722061867 51.47786802660593,51.85708788495578 49.80547642180052,55.527587632898914C49.1030809126936,57.06917785119788 47.84896481707571,58.0 46.47434367149317,58.0C45.26179921315334,58.0 43.181874786529995,58.8556971115683 41.85228939010797,59.90154913681844C39.72174480147835,61.57743575448159 39.14204402132715,61.64097747550207 36.96743069830669,60.43698455254784C35.610343814238014,59.685622005948865 32.21594131201927,59.05492489438057 29.424314026709485,59.035435415729395C25.383635504708266,59.00722580544038 23.905253260153692,59.47195084021483 22.174314026709485,61.31445122136759C19.52513426834978,64.13437385077587 19.20807404481575,71.56790392344277 21.544283013468867,76.08563390532296C22.98416614577461,78.87006084850499 22.95036408998154,79.2476432490392 21.044283013468867,81.67083267024006C19.919927356060988,83.10021926258945 19.0,84.90561563473294 19.0,85.68282460833672C19.0,86.99399227820538 14.24543740420921,91.897207168434 12.904987562112089,91.96839875726849C12.577730721273737,91.98577944077081 11.518451325938948,91.1253760477791 10.551033350257,90.05639121728689zM499.1578947368421,47.0C499.1578947368421,45.625 499.3848684210526,45.0625 499.6622807017544,45.75C499.93969298245617,46.4375 499.93969298245617,47.5625 499.6622807017544,48.25C499.3848684210526,48.9375 499.1578947368421,48.375 499.1578947368421,47.0zM498.0969213223464,22.616783049090824C497.21168066484177,21.55013331031546 497.2980891084198,21.09959008470095 498.4744766069042,20.648167845429533C499.5234700789356,20.245631280959433 500.0,20.67770873543495 500.0,22.031384796338713C500.0,24.36254144423377 499.6381491048906,24.47384891892789 498.0969213223464,22.616783049090824z"/></svg>